<?xml version="1.0" encoding="UTF-8" standalone="no"?>
<!-- Created with Inkscape (http://www.inkscape.org/) -->

<svg
   xmlns:dc="http://purl.org/dc/elements/1.1/"
   xmlns:cc="http://creativecommons.org/ns#"
   xmlns:rdf="http://www.w3.org/1999/02/22-rdf-syntax-ns#"
   xmlns:svg="http://www.w3.org/2000/svg"
   xmlns="http://www.w3.org/2000/svg"
   xmlns:sodipodi="http://sodipodi.sourceforge.net/DTD/sodipodi-0.dtd"
   xmlns:inkscape="http://www.inkscape.org/namespaces/inkscape"
   width="16"
   height="16"
   id="svg2"
   version="1.1"
   inkscape:version="0.48.4 r9939"
   sodipodi:docname="bink-atlas.svg"
   inkscape:export-filename="/home/matthew/TransistorTest/Psiga/img/atlas.png"
   inkscape:export-xdpi="90"
   inkscape:export-ydpi="90">
  <defs
     id="defs4" />
  <sodipodi:namedview
     id="base"
     pagecolor="#ffffff"
     bordercolor="#666666"
     borderopacity="1.0"
     inkscape:pageopacity="0.0"
     inkscape:pageshadow="2"
     inkscape:zoom="47.100001"
     inkscape:cx="9.393841"
     inkscape:cy="7.5662697"
     inkscape:document-units="px"
     inkscape:current-layer="layer1"
     showgrid="true"
     inkscape:window-width="1920"
     inkscape:window-height="1030"
     inkscape:window-x="0"
     inkscape:window-y="0"
     inkscape:window-maximized="1">
    <inkscape:grid
       type="xygrid"
       id="grid2985"
       empspacing="5"
       visible="true"
       enabled="true"
       snapvisiblegridlinesonly="true" />
  </sodipodi:namedview>
  <metadata
     id="metadata7">
    <rdf:RDF>
      <cc:Work
         rdf:about="">
        <dc:format>image/svg+xml</dc:format>
        <dc:type
           rdf:resource="http://purl.org/dc/dcmitype/StillImage" />
        <dc:title></dc:title>
      </cc:Work>
    </rdf:RDF>
  </metadata>
  <g
     inkscape:label="Layer 1"
     inkscape:groupmode="layer"
     id="layer1"
     transform="translate(0,-1036.3622)">
    <path
       style="fill:#ff8000;fill-opacity:1;stroke:none"
       d="M 1 1 L 1 6 L 6 6 L 6 1 L 1 1 z M 2 2 L 5 2 L 5 5 L 2 5 L 2 2 z "
       transform="translate(0,1036.3622)"
       id="rect3815" />
    <path
       style="fill:#ff0080;fill-opacity:1;stroke:none"
       d="M 7 1 L 7 9 L 15 9 L 15 1 L 7 1 z M 8 2 L 14 2 L 14 8 L 8 8 L 8 2 z "
       transform="translate(0,1036.3622)"
       id="rect3817" />
    <path
       style="fill:#0080ff;fill-opacity:1;stroke:none"
       d="m 1.0212314,1043.3622 0,8 5,0 0,-8 -5,0 z m 1,1 3,0 0,6 -3,0 0,-6 z"
       id="rect3819"
       inkscape:connector-curvature="0" />
    <path
       style="fill:#80ff00;fill-opacity:1;stroke:none"
       d="M 7 10 L 7 15 L 15 15 L 15 10 L 7 10 z M 8 11 L 14 11 L 14 14 L 8 14 L 8 11 z "
       transform="translate(0,1036.3622)"
       id="rect3821" />
    <path
       style="fill:#000000;stroke:none;stroke-width:1px;stroke-linecap:butt;stroke-linejoin:miter;stroke-opacity:1;fill-opacity:1"
       d="m 8,7 0,8 7,-4 z"
       id="path3875"
       inkscape:connector-curvature="0"
       transform="translate(0,1036.3622)" />
  </g>
</svg>
